<?xml version="1.0" encoding="utf-8"?>
<!-- Generator: Adobe Illustrator 22.0.1, SVG Export Plug-In . SVG Version: 6.00 Build 0)  -->
<svg version="1.1" id="Layer_1" xmlns="http://www.w3.org/2000/svg" xmlns:xlink="http://www.w3.org/1999/xlink" x="0px" y="0px"
	 viewBox="0 0 41.4 22.1" style="enable-background:new 0 0 41.4 22.1;" xml:space="preserve">
<style type="text/css">
	.st0{fill:#BDBDBD;}
</style>
<g>
	<path class="st0" d="M17.5,4.7L17.5,4.7C17.5,4.7,17.5,4.7,17.5,4.7z"/>
	<path class="st0" d="M17.5,4.7L17.5,4.7C17.5,4.7,17.5,4.7,17.5,4.7L17.5,4.7z"/>
	<path class="st0" d="M17.6,4.6L17.6,4.6L17.6,4.6z"/>
	<path class="st0" d="M17.6,4.6C17.6,4.6,17.6,4.6,17.6,4.6L17.6,4.6z"/>
	<polygon class="st0" points="17.5,4.7 17.6,4.7 17.6,4.7 	"/>
	<path class="st0" d="M17.4,4.8L17.4,4.8L17.4,4.8z"/>
	<path class="st0" d="M34.6,13.7c0.1,0.2,0.9,0.5,1.8,0.9c0.9,0.4,2,0.7,2.7,0.9c-0.9,0.6-1.8,1.2-2.6,1.7c-2.7,1.7-5.6,2.9-8.5,3.2
		c-2.9,0.3-5.8-0.4-8-2.1c-2.2-1.6-3.7-4-4.3-6.5c-0.6-2.4-0.2-5.1,1.4-6.7C17.9,4.4,19,4,20,3.9c1,0,2,0.5,2.7,1.2
		c0.7,0.8,1.1,1.7,1.1,2.7c0.1,1-0.2,1.9-0.7,2.8c-1,1.7-2.6,2.8-4.4,3.2c-1.7,0.5-3.5,0.5-5.2,0.2c-1.6-0.3-3.1-0.8-4.4-1.5
		c-1.3-0.7-2.4-1.5-3.4-2.4C3.9,8.5,2.7,6.6,1.9,5.1C0.5,1.9,0.5,0,0.3,0C0.2,0,0.1,0.1,0,0.6C0,1.1,0,2,0.4,3.5
		C0.7,5,1.5,7.1,3.5,9.6c1,1.2,2.3,2.5,4.1,3.6c1.8,1.1,4,2.1,6.7,2.4c1.7,0.2,3.4,0.1,5.1-0.4c1.6-0.5,3.2-1.4,4.3-2.8
		c1.1-1.3,1.8-3.1,1.6-4.9c-0.2-1.8-1.2-3.5-2.7-4.4C21.9,2.6,21,2.3,20,2.4c-0.9,0-1.8,0.3-2.5,0.6c-1.5,0.8-2.6,2.2-3.1,3.7
		c-1,3-0.4,6.1,0.9,8.6c1.3,2.5,3.3,4.4,5.5,5.5c2.2,1.2,4.7,1.5,6.8,1.3c2.1-0.2,4-0.7,5.6-1.4c1.6-0.7,2.9-1.4,4.1-2.1
		c1.7-1.1,2.2-1.4,2.6-1.8c-0.1,1.4-0.3,4,0,4.5c1.1-1.8,1.4-4.7,1.6-6.5C41.2,14.7,36.8,13.7,34.6,13.7z"/>
</g>
</svg>
