<svg width="20" height="20" viewBox="0 0 20 20" fill="none" xmlns="http://www.w3.org/2000/svg">
<path d="M19.9356 5.90309C19.9234 5.06376 19.7679 4.23107 19.4702 3.44606C18.9494 2.10556 17.8887 1.04557 16.546 0.526666C15.7697 0.235059 14.9489 0.0787228 14.1182 0.0609825C13.0498 0.0133053 12.711 0 9.99889 0C7.28676 0 6.93914 7.43489e-08 5.8785 0.0609825C5.04887 0.0787228 4.22812 0.235059 3.4518 0.526666C2.10906 1.04557 1.04731 2.10556 0.527543 3.44606C0.235451 4.22109 0.0777432 5.04047 0.0621946 5.86872C0.014438 6.93647 0 7.27464 0 9.98226C0 12.6899 -8.27475e-09 13.0358 0.0621946 14.0958C0.0788538 14.9252 0.235451 15.7434 0.527543 16.5207C1.04842 17.8601 2.10906 18.9201 3.45291 19.439C4.2259 19.7406 5.04665 19.9113 5.87961 19.9379C6.94913 19.9856 7.28787 20 10 20C12.7121 20 13.0598 20 14.1204 19.9379C14.95 19.9213 15.7708 19.7649 16.5482 19.4733C17.8909 18.9533 18.9516 17.8933 19.4725 16.5539C19.7646 15.7778 19.9211 14.9595 19.9378 14.1291C19.9856 13.0624 20 12.7242 20 10.0155C19.9978 7.30791 19.9978 6.96419 19.9356 5.90309ZM9.99223 15.1026C7.15571 15.1026 4.85784 12.8085 4.85784 9.97672C4.85784 7.14492 7.15571 4.85087 9.99223 4.85087C12.8265 4.85087 15.1266 7.14492 15.1266 9.97672C15.1266 12.8085 12.8265 15.1026 9.99223 15.1026ZM15.331 5.85653C14.6679 5.85653 14.1337 5.3221 14.1337 4.66127C14.1337 4.00044 14.6679 3.46602 15.331 3.46602C15.9918 3.46602 16.5271 4.00044 16.5271 4.66127C16.5271 5.3221 15.9918 5.85653 15.331 5.85653Z" fill="#757575"/>
<path d="M9.99223 13.3064C11.8342 13.3064 13.3274 11.8156 13.3274 9.97672C13.3274 8.13781 11.8342 6.64708 9.99223 6.64708C8.15026 6.64708 6.65704 8.13781 6.65704 9.97672C6.65704 11.8156 8.15026 13.3064 9.99223 13.3064Z" fill="#757575"/>
</svg>
